<mxfile host="app.diagrams.net" modified="2024-02-04T14:03:59.999Z" agent="Mozilla/5.0 (Macintosh; Intel Mac OS X 10_15_7) AppleWebKit/537.36 (KHTML, like Gecko) Chrome/115.0.0.0 Safari/537.36" version="22.1.21" etag="lvgMJSqklWdRf8Gwf5ds" type="github">
  <diagram name="페이지-1" id="DPB8jZPtJocBngnnMyV_">
    <mxGraphModel>
      <root>
        <mxCell id="0" />
        <mxCell id="1" parent="0" />
      </root>
    </mxGraphModel>
  </diagram>
</mxfile>
